<?xml version="1.0" encoding="UTF-8"?>
<svg width="30px" height="30px" viewBox="0 0 30 30" version="1.1" xmlns="http://www.w3.org/2000/svg" xmlns:xlink="http://www.w3.org/1999/xlink">
    <title>icon底部-已推荐@3x</title>
    <g id="页面-1" stroke="none" stroke-width="1" fill="none" fill-rule="evenodd">
        <g id="推荐与取消推荐" transform="translate(-617.000000, -360.000000)">
            <g id="编组-6备份-6" transform="translate(617.000000, 360.000000)">
                <g id="点赞-hover备份-12">
                    <g id="点赞-hover备份-11">
                        <g id="点赞">
                            <g id="icon/点赞_hover" transform="translate(1.000000, 0.000000)">
                                <g id="分组-5">
                                    <g id="编组-4" transform="translate(0.548763, 0.518832)">
                                        <path d="M15.0703938,1.94892585 C14.2149172,1.68220612 13.485593,1.82925381 13.0416143,2.01880722 C12.6427916,2.18908163 12.0979999,2.60568282 11.9049037,3.17278671 C11.7631948,3.58866747 11.7812153,4.01622947 11.8210072,4.44493039 C11.8476184,4.73114463 11.8943639,5.01608975 11.9404311,5.30092149 C12.035173,5.88670683 12.1237439,6.47196022 12.0971498,7.06295883 C12.0745941,7.56701693 11.878613,8.20780957 11.6322357,8.65568274 C11.2192709,9.40583907 10.9374287,9.68068306 10.1645054,9.97108578 C9.50750125,10.2179355 8.16048663,10.3371024 7.46203339,10.338728 C6.58184856,10.3409693 5.7015838,10.3356778 4.82128429,10.3303757 C4.37673449,10.3276981 3.9321758,10.3250199 3.02231186,10.3332128 C2.63760462,10.3658532 2.32249739,10.5345527 2.08079612,10.833238 C1.87012153,11.0935275 1.80101199,11.4009684 1.80101199,11.7302121 C1.80154984,12.6448516 1.80189318,13.5888205 1.8021093,14.5472044 L1.80627777,23.3333731 C1.84047229,23.7611292 2.02579889,24.1050612 2.38494806,24.3518851 C2.64797985,24.5326129 2.94130399,24.6314795 3.25806735,24.6311688 C5.20522101,24.6294036 7.15220451,24.6299917 9.09922367,24.6305801 C10.0724898,24.6308742 11.0457648,24.6311684 12.0190665,24.6311684 C12.9524882,24.6311684 13.9475812,24.6314756 14.9641085,24.6317894 C17.0637322,24.6324377 19.2548245,24.6331144 21.1826323,24.6311688 C21.3810022,24.6309734 21.581935,24.6259812 21.7768822,24.5939137 C22.2986304,24.5084026 22.7430379,24.2818582 23.0925444,23.951742 C23.4735444,23.5918795 23.7415268,23.1132934 23.8878758,22.5721648 C23.9552134,22.3233499 24.0061808,22.0702959 24.1287841,21.4788913 C24.3165439,20.6160328 24.5036878,19.6369932 24.6899303,18.6632314 C24.8628848,17.7589458 25.0350348,16.8591411 25.2606377,15.803877 C25.4067963,15.1264026 25.5607667,14.4288395 25.6030218,13.7777835 C25.6446207,13.1368374 25.6105617,12.5216339 25.3644557,11.9265449 C25.2033715,11.5370947 24.972926,11.1974397 24.6391094,10.9348112 C24.1562572,10.5550212 23.5950239,10.3894799 22.9922143,10.3812473 C22.2114003,10.3707342 21.5730338,10.3742931 20.9075119,10.3779635 C20.4487313,10.3804936 19.9772103,10.3830853 19.4387419,10.381322 C19.281368,10.3810378 18.866179,10.3734083 18.397567,10.0331782 C18.174325,9.87109601 17.9277498,9.62334978 17.6013973,8.79584152 C17.6085836,8.42567372 17.6063563,8.11862731 17.6039674,7.77685926 C17.6026361,7.58639279 17.6012372,7.38547591 17.6012372,7.15820521 C17.6012372,4.9461481 17.315598,4.19026491 16.8324163,3.30660854 C16.6129321,2.91425893 15.9301323,2.21697436 15.0703938,1.94892585 Z" id="Stroke-1" stroke="#282828" stroke-width="1.7" fill="#FFE300"></path>
                                        <path d="M5.95123719,11.2672111 L5.95123719,23.6951257 C5.95123719,24.1292451 6.33179516,24.4811684 6.80123719,24.4811684 C7.27067923,24.4811684 7.65123719,24.1292451 7.65123719,23.6951257 L7.65123719,11.2672111 C7.65123719,10.8330917 7.27067923,10.4811684 6.80123719,10.4811684 C6.33179516,10.4811684 5.95123719,10.8330917 5.95123719,11.2672111 Z" id="Path-2" fill="#282828" fill-rule="nonzero"></path>
                                    </g>
                                </g>
                            </g>
                        </g>
                    </g>
                </g>
            </g>
        </g>
    </g>
</svg>